# xmcd
#
# Track frame offsets:
#	150
#	13588
#	27298
#	41459
#	53300
#	71421
#	83514
#	95811
#	109424
#	122264
#	137337
#	153348
#	170406
#	181491
#	195329
#	206958
#	217535
#	226108
#	240865
#	250360
#	261119
#	277390
#
# Disc length: 3877 seconds
#
# Revision: 0
# Processed by: cddbd v1.5.2PL0 Copyright (c) Steve Scherf et al.
# Submitted via: EZCDAudioConverter 2.1.7.1
#
DISCID=1c0f2316
DTITLE=Ike and Tina Turner - Delilah's Power/Airwaves
DYEAR=1900
DGENRE=
TTITLE0=Delilah's Power
TTITLE1=Never Been To Spain
TTITLE2=Unhappy Birthday
TTITLE3=(You've Got To) Put Something Into It
TTITLE4=Nothing Comes To You When You're Asleep But A Dream
TTITLE5=Stormy Weather (Keeps Rainin' All The Time)
TTITLE6=Sugar, Sugar
TTITLE7=Too Much For One Woman
TTITLE8=Trying To Find My Mind
TTITLE9=Pick Me Up (Take Me Where Your Home Is)
TTITLE10=Too Many Women
TTITLE11=I Want To Take You Higher
TTITLE12=Too Many Ties That Bind
TTITLE13=Strange
TTITLE14=He Don't Love You
TTITLE15=Flee Flee Fla
TTITLE16=Honey Child Baby
TTITLE17=Just Want Your Love Sometime
TTITLE18=We Need An Understanding
TTITLE19=Two Is A Couple
TTITLE20=It's My Time Now
TTITLE21=Dear John
EXTD=
EXTT0=
EXTT1=
EXTT2=
EXTT3=
EXTT4=
EXTT5=
EXTT6=
EXTT7=
EXTT8=
EXTT9=
EXTT10=
EXTT11=
EXTT12=
EXTT13=
EXTT14=
EXTT15=
EXTT16=
EXTT17=
EXTT18=
EXTT19=
EXTT20=
EXTT21=
PLAYORDER=
